<?xml version="1.0" encoding="UTF-8"?>
<svg width="21px" height="18px" viewBox="0 0 21 18" version="1.1" xmlns="http://www.w3.org/2000/svg" xmlns:xlink="http://www.w3.org/1999/xlink">
    <title>Hide_PW</title>
    <g id="Icons" stroke="none" stroke-width="1" fill="none" fill-rule="evenodd">
        <g transform="translate(-60.000000, -42.000000)" fill="#B5B5B5" id="Group">
            <g transform="translate(58.000000, 42.000000)" id="Fill-1">
                <path d="M12.3556915,5.68421053 L15.3291174,8.62105263 L15.3291174,8.43157895 C15.3291174,6.82105263 14.0816401,5.58947368 12.4515776,5.58947368 C12.4515776,5.68421053 12.4515776,5.68421053 12.3556915,5.68421053 L12.3556915,5.68421053 Z M8.23259212,6.44210526 L9.67088261,7.86315789 L9.67088261,8.52631579 C9.67088261,10.1368421 10.917401,11.3684211 12.5474636,11.3684211 C12.7392357,11.3684211 12.9310077,11.3684211 13.2186658,11.2736842 L14.6569563,12.6947368 C13.9857541,13.0736842 13.3145518,13.2631579 12.5474636,13.2631579 C9.86265467,13.2631579 7.75316196,11.1789474 7.75316196,8.52631579 C7.75316196,7.76842105 7.94493402,7.10526316 8.23259212,6.44210526 L8.23259212,6.44210526 Z M2.95886033,1.23157895 L5.16423908,3.41052632 L5.54778321,3.78947368 C3.91772065,5.02105263 2.67120223,6.63157895 2,8.52631579 C3.63006255,12.6947368 7.75316196,15.6315789 12.5474636,15.6315789 C13.9857541,15.6315789 15.4240446,15.3473684 16.7674079,14.8736842 L17.1499932,15.2526316 L19.9306881,18 L21.1772065,16.7684211 L4.20537875,0 L2.95886033,1.23157895 Z M12.5474636,3.78947368 C15.2322725,3.78947368 17.3417652,5.87368421 17.3417652,8.52631579 C17.3417652,9.09473684 17.246838,9.75789474 16.9582211,10.2315789 L19.738916,12.9789474 C21.1772065,11.7473684 22.3278389,10.2315789 23,8.52631579 C21.3689786,4.35789474 17.246838,1.42105263 12.4515776,1.42105263 C11.1091731,1.42105263 9.86265467,1.70526316 8.61613625,2.08421053 L10.725629,4.16842105 C11.3009452,3.88421053 11.9721474,3.78947368 12.5474636,3.78947368 L12.5474636,3.78947368 Z"></path>
            </g>
        </g>
    </g>
</svg>