<?xml version="1.0" encoding="UTF-8"?>
<svg width="24px" height="24px" viewBox="0 0 24 24" version="1.1" xmlns="http://www.w3.org/2000/svg" xmlns:xlink="http://www.w3.org/1999/xlink">
    <title>magnify_navy</title>
    <g id="Icons" stroke="none" stroke-width="1" fill="none" fill-rule="evenodd">
        <g transform="translate(-549.000000, -237.000000)" fill="#081F2D" id="Group">
            <g transform="translate(549.000000, 237.000000)" id="magnify_navy">
                <path d="M18.6551666,10.5339139 C18.6551666,15.0125607 15.0115559,18.6561715 10.5329091,18.6561715 C6.05426227,18.6561715 2.41065148,15.0125607 2.41065148,10.5339139 C2.41065148,6.05526712 6.05426227,2.41165634 10.5329091,2.41165634 C15.0115559,2.41165634 18.6551666,6.05526712 18.6551666,10.5339139 M23.3136828,20.0006699 L19.663038,16.3500251 C19.592698,16.2796851 19.5183386,16.2163792 19.4419695,16.1570926 C19.4791492,16.0988109 19.5052755,16.0324904 19.5414503,15.9732038 C19.7152906,15.6858148 19.8740579,15.3913917 20.020767,15.087925 C20.0720147,14.9814101 20.126277,14.8779099 20.1735053,14.7693854 C20.3403115,14.3905543 20.4880255,14.0026796 20.6096131,13.6017418 C20.6467928,13.4801541 20.6719143,13.354547 20.7050745,13.2309496 C20.7834534,12.9355217 20.8497739,12.6370792 20.9020265,12.3326076 C20.9311673,12.1647965 20.9582984,11.9979903 20.9794004,11.8291743 C21.0205996,11.4915425 21.0447161,11.1498911 21.0537598,10.8032155 C21.0557696,10.7137833 21.0728521,10.6273656 21.0728521,10.5359236 C21.0728521,10.3078211 21.0477307,10.0857478 21.0326578,9.86065986 C21.0236141,9.71495562 21.0216044,9.56623681 21.0075364,9.42153743 C20.9854296,9.22157093 20.9492547,9.02763356 20.9170993,8.83068163 C20.8869536,8.64679283 20.8588176,8.46089432 20.8196282,8.2800201 C20.7814436,8.10617987 20.7342154,7.93736393 20.6869871,7.76754313 C20.6327248,7.56556691 20.5744431,7.3656004 20.5081226,7.16864847 C20.4578798,7.01992966 20.4036175,6.87422542 20.3473455,6.72952604 C20.2629375,6.51247697 20.1714956,6.30045219 20.0740245,6.09043711 C20.0398593,6.01808742 20.0147379,5.94071345 19.9785631,5.86836376 L19.9725339,5.87941718 C19.1093619,4.13197119 17.7799364,2.66287054 16.1420198,1.62887289 C16.0023447,1.54044549 15.8636744,1.4540278 15.7209848,1.3726344 C15.5963825,1.30128957 15.4697706,1.23496902 15.3421537,1.16965332 C15.1894155,1.09026964 15.0336627,1.01691509 14.876905,0.945570256 C14.7583319,0.891307989 14.6417685,0.836040864 14.5221906,0.786802881 C14.252889,0.676268632 13.9805728,0.574778094 13.7012226,0.486350695 C13.6318875,0.464243845 13.5595378,0.449170993 13.4891978,0.428069 C13.2570759,0.359738737 13.0229442,0.298442472 12.7837883,0.247194775 C12.6792832,0.224083068 12.5747781,0.204990789 12.4692681,0.185898509 C12.2481996,0.14469938 12.0241166,0.110534249 11.7980238,0.0834031151 C11.7015575,0.0713448334 11.6040864,0.0582816949 11.5066153,0.0492379836 C11.186066,0.0200971362 10.863507,0 10.5359236,0 L10.5349188,0 L10.5329091,0 C4.715793,0 -6.39488462e-14,4.715793 -6.39488462e-14,10.5339139 L-6.39488462e-14,10.5349188 L-6.39488462e-14,10.5359236 C-6.39488462e-14,10.8172835 0.0200971362,11.0926143 0.0422039859,11.3669402 C0.04722827,11.4473288 0.0452185564,11.5307319 0.0542622676,11.6111204 C0.0643108357,11.7085915 0.0854128287,11.8030481 0.0984759672,11.9005192 C0.540612963,15.3039692 2.59755485,18.1989616 5.48551331,19.7796014 C6.98576453,20.603584 8.70708424,21.0728521 10.5359236,21.0728521 C10.6253559,21.0728521 10.7107687,21.0567744 10.7991961,21.0537598 C11.1468766,21.045721 11.4905376,21.0216044 11.8291743,20.9804053 C11.9979903,20.9582984 12.1637917,20.9321722 12.3305979,20.9030313 C12.6360744,20.8507788 12.9365265,20.7834534 13.2329593,20.7050745 C13.3555518,20.6729191 13.4801541,20.6467928 13.6007369,20.610618 C14.0016748,20.4880255 14.3915592,20.3403115 14.7713951,20.1735053 C14.8779099,20.126277 14.9794004,20.0730196 15.0839055,20.0217719 C15.3903869,19.8750628 15.6878245,19.7142857 15.9772232,19.5394406 C16.0355049,19.5042706 16.0998158,19.4781444 16.1570926,19.4419695 C16.2163792,19.5173338 16.2796851,19.5937029 16.3500251,19.663038 L20.0006699,23.3146877 C20.4578798,23.7718975 21.0577793,24 21.6566739,24 C22.2565734,24 22.856473,23.7718975 23.3136828,23.3146877 C24.2291074,22.3992631 24.2291074,20.9160945 23.3136828,20.0006699" id="Fill-1"></path>
            </g>
        </g>
    </g>
</svg>