<?xml version="1.0" encoding="UTF-8"?>
<svg width="21px" height="15px" viewBox="0 0 21 15" version="1.1" xmlns="http://www.w3.org/2000/svg" xmlns:xlink="http://www.w3.org/1999/xlink">
    <title>Show_PW</title>
    <g id="Icons" stroke="none" stroke-width="1" fill="none" fill-rule="evenodd">
        <g transform="translate(-20.000000, -43.000000)" fill="#B5B5B5" id="Group">
            <g transform="translate(18.000000, 42.000000)" id="Fill-1">
                <path d="M12.5,5.7 C10.9202273,5.7 9.63636364,6.95533333 9.63636364,8.5 C9.63636364,10.0446667 10.9202273,11.3 12.5,11.3 C14.0797727,11.3 15.3636364,10.0446667 15.3636364,8.5 C15.3636364,6.95533333 14.0797727,5.7 12.5,5.7 M12.5,13.1666667 C9.86545455,13.1666667 7.72727273,11.076 7.72727273,8.5 C7.72727273,5.924 9.86545455,3.83333333 12.5,3.83333333 C15.1345455,3.83333333 17.2727273,5.924 17.2727273,8.5 C17.2727273,11.076 15.1345455,13.1666667 12.5,13.1666667 M12.5,1.5 C7.72727273,1.5 3.65136364,4.40266667 2,8.5 C3.65136364,12.5973333 7.72727273,15.5 12.5,15.5 C17.2727273,15.5 21.3486364,12.5973333 23,8.5 C21.3486364,4.40266667 17.2775,1.5 12.5,1.5"></path>
            </g>
        </g>
    </g>
</svg>